<svg viewBox="0 0 512 512" xmlns="http://www.w3.org/2000/svg"><path d="m357.31 214.37c24.62-25 49.95-49.38 74.21-74.68 3.93-8.02-4.62-15.74-12.15-11.13l-72.44 72.3c-9.14 8.79-23.69 9.71-33.58 1.61-11.69-9.57-12.88-25.74-2.93-37.12l72.5-72.49c5.68-8.56-4.45-18.08-12.63-11.37-23.11 24.32-48.61 47.02-71.49 71.48-11.31 12.09-15.2 28.3-9.52 44.14 10.03 28 45.72 37.02 68.03 17.26z"/><path d="m141.7 81.49c-8.18-6.71-18.31 2.81-12.63 11.37l72.5 72.49c9.95 11.38 8.76 27.55-2.93 37.12-9.89 8.1-24.44 7.17-33.58-1.61l-72.44-72.3c-7.53-4.61-16.07 3.12-12.15 11.13 24.26 25.3 49.59 49.69 74.21 74.68 22.31 19.76 58 10.74 68.03-17.26 5.68-15.85 1.78-32.06-9.52-44.14-22.88-24.46-48.38-47.16-71.49-71.48z"/><path d="m366.31 257.61c-.27-.53-.48-1.07-.51-1.61.04-.54.24-1.08.51-1.61l90.87-91.06c23.78-28.84 1.29-72.11-35.75-70.1-.71.04-2.97.74-3.29.27-.28-.42.36-2.91.4-3.66.75-14.43-6.81-29.52-18.79-37.42-16.12-10.63-37.23-9.18-51.74 3.46l-92.02 92-92.02-92c-14.51-12.64-35.61-14.09-51.74-3.46-11.99 7.9-19.54 23-18.79 37.42.04.75.69 3.24.4 3.66-.32.47-2.58-.23-3.29-.27-37.04-2.01-59.53 41.26-35.75 70.1l90.87 91.06c.27.53.48 1.07.51 1.61-.04.54-.24 1.08-.51 1.61l-90.87 91.06c-23.78 28.84-1.29 72.11 35.75 70.1.71-.04 2.97-.74 3.29-.27.28.42-.36 2.91-.4 3.66-.75 14.43 6.81 29.52 18.79 37.42 16.12 10.63 37.23 9.18 51.74-3.46l92.02-92 92.02 92c14.51 12.64 35.61 14.09 51.74 3.46 11.99-7.9 19.54-23 18.79-37.42-.04-.75-.69-3.24-.4-3.66.32-.47 2.58.23 3.29.27 37.04 2.01 59.53-41.26 35.75-70.1zm40.48 137.41-73.5-73.5c-7.92-6.24-17.8 2.57-12.74 11.17l74.51 74.57c19.89 23.6-9.55 55.36-34.59 37.12l-98.92-98.61c-1.84-1.34-3.76-1.9-5.56-1.86-1.8-.03-3.72.52-5.56 1.86l-98.92 98.61c-25.04 18.24-54.48-13.51-34.59-37.12l74.51-74.57c5.05-8.61-4.83-17.41-12.74-11.17l-73.5 73.5c-23.31 20.44-56.02-9.25-38.1-34.55l80.75-80.84c2.67-2.52 5.37-5.1 7.76-7.77l1.5-1.5c4.64-5.19 6.42-9.94 6.32-14.37.1-4.43-1.68-9.18-6.32-14.37l-1.5-1.5c-2.39-2.67-5.09-5.25-7.76-7.77l-80.75-80.84c-17.92-25.3 14.79-54.98 38.1-34.55l73.5 73.5c7.92 6.24 17.8-2.57 12.74-11.17l-74.51-74.57c-19.89-23.6 9.55-55.36 34.59-37.12l98.92 98.61c1.84 1.34 3.76 1.9 5.56 1.86 1.8.03 3.72-.52 5.56-1.86l98.92-98.61c25.04-18.24 54.48 13.51 34.59 37.12l-74.51 74.57c-5.05 8.61 4.83 17.41 12.74 11.17l73.5-73.5c23.31-20.44 56.02 9.25 38.1 34.55l-80.75 80.84c-2.67 2.52-5.37 5.1-7.76 7.77l-1.5 1.5c-4.64 5.19-6.42 9.94-6.32 14.37-.1 4.43 1.68 9.18 6.32 14.37l1.5 1.5c2.39 2.67 5.09 5.25 7.76 7.77l80.75 80.84c17.92 25.3-14.79 54.98-38.1 34.55z"/><path d="m357.31 297.63c-22.31-19.76-58-10.74-68.03 17.26-5.68 15.85-1.78 32.06 9.52 44.14 22.88 24.46 48.38 47.16 71.49 71.48 8.18 6.71 18.31-2.81 12.63-11.37l-72.5-72.49c-9.95-11.38-8.76-27.55 2.93-37.12 9.89-8.1 24.44-7.17 33.58 1.61l72.44 72.3c7.53 4.61 16.07-3.12 12.15-11.13-24.26-25.3-49.59-49.69-74.21-74.68z"/><path d="m154.69 297.63c-24.62 25-49.95 49.38-74.21 74.68-3.93 8.02 4.62 15.74 12.15 11.13l72.44-72.3c9.14-8.79 23.69-9.71 33.58-1.61 11.69 9.57 12.88 25.74 2.93 37.12l-72.5 72.49c-5.68 8.56 4.45 18.08 12.63 11.37 23.11-24.32 48.61-47.02 71.49-71.48 11.31-12.09 15.2-28.3 9.52-44.14-10.03-28-45.72-37.02-68.03-17.26z"/><path d="m0 0h512v512h-512z" fill="none"/></svg>