<svg fill="none" height="180" viewBox="0 0 180 180" width="180" xmlns="http://www.w3.org/2000/svg" xmlns:xlink="http://www.w3.org/1999/xlink">
<clipPath id="a"><path d="m0 0h180v180h-180z"/></clipPath>
<g clip-path="url(#a)" stroke="#000" stroke-linecap="round" stroke-width="12">
<path d="m18 84.8528 67.8822-67.8822c9.3726-9.37262 24.5688-9.37262 33.9408 0 9.373 9.3725 9.373 24.5685 0 33.9411l-51.2649 51.2653"/>
<path d="m69.2652 101.47 50.5578-50.5583c9.373-9.3726 24.569-9.3726 33.942 0l.353.3535c9.373 9.3726 9.373 24.5686 0 33.9411l-61.3932 61.3937c-3.1242 3.124-3.1242 8.189 0 11.313l12.6062 12.607"/>
<path d="m102.853 33.9411-50.2048 50.2046c-9.3726 9.3726-9.3726 24.5683 0 33.9413 9.3726 9.372 24.5685 9.372 33.9411 0l50.2047-50.2048"/>
</g>
</svg>
